<svg xmlns="http://www.w3.org/2000/svg" width="512" height="512" viewBox="0 0 512 512">
  <defs>
    <linearGradient id="bg" x1="0" y1="0" x2="1" y2="1">
      <stop offset="0" stop-color="#3aa86b"/>
      <stop offset="1" stop-color="#157347"/>
    </linearGradient>
    <filter id="sh" x="-20%" y="-20%" width="140%" height="140%">
      <feDropShadow dx="0" dy="10" stdDeviation="14" flood-color="#000" flood-opacity="0.35"/>
    </filter>
  </defs>
  <rect width="512" height="512" rx="112" fill="url(#bg)"/>
  <g filter="url(#sh)">
    <rect x="116" y="116" width="280" height="280" rx="22" fill="#fbfdfb"/>
  </g>
  <!-- header band -->
  <path d="M116 138a22 22 0 0 1 22-22h236a22 22 0 0 1 22 22v34H116Z" fill="#157347"/>
  <!-- frozen first column -->
  <rect x="116" y="172" width="58" height="224" fill="#e7f2ec"/>
  <!-- grid lines -->
  <g stroke="#cfe3d8" stroke-width="4">
    <path d="M174 172V396"/>
    <path d="M233 172V396"/>
    <path d="M292 172V396"/>
    <path d="M351 172V396"/>
    <path d="M116 228H396"/>
    <path d="M116 284H396"/>
    <path d="M116 340H396"/>
  </g>
  <!-- a couple of filled cells, like data + a total -->
  <rect x="178" y="232" width="50" height="48" fill="#bfe3cf"/>
  <rect x="296" y="344" width="96" height="48" rx="4" fill="#157347"/>
  <!-- column letters hint on the header -->
  <g fill="#fbfdfb">
    <rect x="190" y="138" width="26" height="10" rx="5"/>
    <rect x="249" y="138" width="26" height="10" rx="5"/>
    <rect x="308" y="138" width="26" height="10" rx="5"/>
  </g>
</svg>
